# xmcd
#
# Track frame offsets: 
#        150
#        18030
#        39924
#        60990
#        81465
#        104017
#        119440
#        133707
#        151362
#        170552
#        187061
#        201419
#        215940
#
# Disc length: 3101 seconds
#
# Revision: 1
# Processed by: cddbd v1.5.2PL0 Copyright (c) Steve Scherf et al.
# Submitted via: ExactAudioCopy v0.99pb3
#
DISCID=be0c1b0d
DTITLE=Preacher Boy - Demanding To Be Next
DYEAR=2004
DGENRE=Blues
TTITLE0=A Little Better When It Rains
TTITLE1=Whistleman
TTITLE2=Nehemiah James
TTITLE3=Jackson Street
TTITLE4=Comin' Up Aces
TTITLE5=Rock Skipper
TTITLE6=One-Way Turnstile
TTITLE7=Cemetary Stout
TTITLE8=Death Letter
TTITLE9=Ninety-Nine Bottles
TTITLE10=Umbrella
TTITLE11=Change
TTITLE12=My Gold Canoe
EXTD=
EXTT0=
EXTT1=
EXTT2=
EXTT3=
EXTT4=
EXTT5=
EXTT6=
EXTT7=
EXTT8=
EXTT9=
EXTT10=
EXTT11=
EXTT12=
PLAYORDER=
